<svg xmlns="http://www.w3.org/2000/svg" viewBox="0 0 204.03 160"><defs><style>.cls-1{fill:#1c1c1c;}.cls-2{fill:#ebf0f3;}.cls-3{fill:#424241;}.cls-4{fill:#e23237;}.cls-5{fill:#b52e31;}.cls-6{fill:#fff;}</style></defs><title>Recurso 4</title><g id="Capa_2" data-name="Capa 2"><g id="Capa_1-2" data-name="Capa 1"><path class="cls-1" d="M12.86,0H60.73a9,9,0,0,1,7.79,4.51l8.08,11a9,9,0,0,0,7.79,4.51H204V145.46a11.92,11.92,0,0,1-11.92,11.92H11.92A11.92,11.92,0,0,1,0,145.46V33.88A89.7,89.7,0,0,1,4.22,6.7h0A8.94,8.94,0,0,1,12.86,0Z"/><rect class="cls-2" x="18.31" y="17.87" width="156.95" height="66.27"/><path class="cls-3" d="M195.09,5.67H146A8.93,8.93,0,0,0,137.89,11l-8.42,18.64a8.93,8.93,0,0,1-8.13,5.28H0v113.2A11.92,11.92,0,0,0,11.92,160H192.11A11.92,11.92,0,0,0,204,148.08V14.61A8.94,8.94,0,0,0,195.09,5.67Z"/><path class="cls-4" d="M118.06,87.75l37.22-13.26,38.22,13-6.19,49.24-32,17.74L123.75,137Z"/><path class="cls-5" d="M193.48,87.51l-38.22-13v80l32-17.71,6.19-49.27Z"/><path class="cls-6" d="M155.33,83.7h0l-23.28,51.8,8.7-.15,4.67-11.68h20.88l5.12,11.83,8.31.15L155.33,83.7Zm.06,16.78,7.84,16.38H148.5l6.9-16.38Z"/></g></g></svg>