<svg xmlns="http://www.w3.org/2000/svg" viewBox="0 0 204.03 160"><defs><style>.cls-1{fill:#1c1c1c;}.cls-2{fill:#ebf0f3;}.cls-3{fill:#424241;}.cls-4{fill:#0277bd;}.cls-5{fill:#039be5;}.cls-6{fill:#fff;}.cls-7{fill:#eee;}</style></defs><title>Recurso 3</title><g id="Capa_2" data-name="Capa 2"><g id="Capa_1-2" data-name="Capa 1"><path class="cls-1" d="M12.86,0H60.73a9,9,0,0,1,7.79,4.51l8.08,11a9,9,0,0,0,7.79,4.51H204V145.46a11.92,11.92,0,0,1-11.92,11.92H11.92A11.92,11.92,0,0,1,0,145.46V33.88A89.7,89.7,0,0,1,4.22,6.7h0A8.94,8.94,0,0,1,12.86,0Z"/><rect class="cls-2" x="18.31" y="17.87" width="156.95" height="66.27"/><path class="cls-3" d="M195.09,5.67H146A8.93,8.93,0,0,0,137.89,11l-8.42,18.64a8.93,8.93,0,0,1-8.13,5.28H0v113.2A11.92,11.92,0,0,0,11.92,160H192.11A11.92,11.92,0,0,0,204,148.08V14.61A8.94,8.94,0,0,0,195.09,5.67Z"/><path class="cls-4" d="M194.66,72.43H123.08L129.4,144l29.47,8.42L188.34,144l6.32-71.58Z"/><path class="cls-5" d="M159.49,78.74V145.9l23.58-6.74,5.26-60.42Z"/><path class="cls-6" d="M178.65,89.27H159.49v8.42H169.8l-.63,8.42h-9.68v8.42h9.26l-.63,9.47L159.49,127v8.84l16.63-5.47,1.47-24.21h0Z"/><path class="cls-7" d="M159.49,89.27v8.42H140.75l-.63-8.42Zm-9.68,16.84.42,8.42h9.26v-8.42Zm.84,12.63h-8.42l.63,11.58,16.63,5.47V127L150.86,124Z"/></g></g></svg>