<svg xmlns="http://www.w3.org/2000/svg" viewBox="0 0 204.03 160"><defs><style>.cls-1{fill:#1c1c1c;}.cls-2{fill:#ebf0f3;}.cls-3{fill:#424241;}.cls-4{fill:#ffd600;}.cls-5{fill:#000001;}</style></defs><title>Recurso 2</title><g id="Capa_2" data-name="Capa 2"><g id="Capa_1-2" data-name="Capa 1"><path class="cls-1" d="M12.86,0H60.73a9,9,0,0,1,7.79,4.51l8.08,11a9,9,0,0,0,7.79,4.51H204V145.46a11.92,11.92,0,0,1-11.92,11.92H11.92A11.92,11.92,0,0,1,0,145.46V33.88A89.7,89.7,0,0,1,4.22,6.7h0A8.94,8.94,0,0,1,12.86,0Z"/><rect class="cls-2" x="18.31" y="17.87" width="156.95" height="66.27"/><path class="cls-3" d="M195.09,5.67H146A8.93,8.93,0,0,0,137.89,11l-8.42,18.64a8.93,8.93,0,0,1-8.13,5.28H0v113.2A11.92,11.92,0,0,0,11.92,160H192.11A11.92,11.92,0,0,0,204,148.08V14.61A8.94,8.94,0,0,0,195.09,5.67Z"/><path class="cls-4" d="M111,145.5v-80h80v80Z"/><path class="cls-5" d="M162.8,125.38c1.54,2.5,3.21,4.89,6.75,4.89,3,0,4.53-1.48,4.53-3.52,0-2.45-1.61-3.32-4.88-4.74l-1.79-.76c-5.18-2.2-8.62-4.95-8.62-10.76,0-5.36,4.1-9.43,10.51-9.43,4.56,0,7.84,1.58,10.2,5.72l-5.59,3.57c-1.23-2.2-2.56-3.06-4.62-3.06a3.12,3.12,0,0,0-3.43,3.06c0,2.14,1.33,3,4.41,4.34l1.79.76c6.1,2.6,9.54,5.25,9.54,11.22,0,6.43-5.08,9.95-11.89,9.95s-10.45-3.34-12.56-7.48Zm-24.33.18c1,2,2.55,3.56,4.76,3.56s3.33-.93,3.33-4.54V101.06h6.67v24.67c0,7.48-3.91,10.89-9.61,10.89-5.15,0-8.87-3.88-10.39-7.48Z"/></g></g></svg>