<svg xmlns="http://www.w3.org/2000/svg" viewBox="0 0 204.03 160"><defs><style>.cls-1{fill:#1c1c1c;}.cls-2{fill:#ebf0f3;}.cls-3{fill:#424241;}.cls-4{fill:#00d8ff;}</style></defs><title>Recurso 1</title><g id="Capa_2" data-name="Capa 2"><g id="Capa_1-2" data-name="Capa 1"><path class="cls-1" d="M12.86,0H60.73a9,9,0,0,1,7.79,4.51l8.08,11a9,9,0,0,0,7.79,4.51H204V145.46a11.92,11.92,0,0,1-11.92,11.92H11.92A11.92,11.92,0,0,1,0,145.46V33.88A89.7,89.7,0,0,1,4.22,6.7h0A8.94,8.94,0,0,1,12.86,0Z"/><rect class="cls-2" x="18.31" y="17.87" width="156.95" height="66.27"/><path class="cls-3" d="M195.09,5.67H146A8.93,8.93,0,0,0,137.89,11l-8.42,18.64a8.93,8.93,0,0,1-8.13,5.28H0v113.2A11.92,11.92,0,0,0,11.92,160H192.11A11.92,11.92,0,0,0,204,148.08V14.61A8.94,8.94,0,0,0,195.09,5.67Z"/><path class="cls-4" d="M182.11,96.31q-1.4-.48-2.89-.91.25-1,.45-2c2.19-10.64.76-19.2-4.13-22-4.69-2.71-12.36.12-20.11,6.86q-1.12,1-2.24,2.05-.75-.71-1.49-1.38c-8.12-7.21-16.26-10.25-21.15-7.42-4.69,2.71-6.07,10.77-4.1,20.85q.29,1.46.66,3c-1.15.33-2.26.68-3.33,1-9.52,3.32-15.6,8.52-15.6,13.92,0,5.57,6.53,11.16,16.44,14.55q1.17.4,2.43.76-.41,1.64-.71,3.21c-1.88,9.9-.41,17.77,4.26,20.47,4.83,2.78,12.93-.08,20.82-7q.94-.82,1.88-1.73,1.22,1.17,2.43,2.22c7.64,6.58,15.19,9.23,19.86,6.53,4.82-2.79,6.39-11.24,4.36-21.52q-.23-1.18-.54-2.4.85-.25,1.67-.52c10.31-3.42,17-8.94,17-14.58,0-5.41-6.28-10.65-16-14Zm-2.24,24.93-1.51.47a90.1,90.1,0,0,0-4.55-11.39,90.08,90.08,0,0,0,4.38-11.22q1.38.4,2.67.84c8.32,2.86,13.4,7.1,13.4,10.36,0,3.48-5.48,8-14.38,10.94Zm-3.69,7.32a32.53,32.53,0,0,1,.43,11.87c-.54,2.89-1.61,4.81-2.94,5.58-2.83,1.64-8.89-.49-15.43-6.12q-1.12-1-2.26-2.06a90.24,90.24,0,0,0,7.54-9.57,89.66,89.66,0,0,0,12.18-1.88q.28,1.11.49,2.18Zm-37.35,17.17c-2.77,1-5,1-6.31.24-2.84-1.64-4-8-2.41-16.42q.28-1.46.66-3a90.34,90.34,0,0,0,12.12,1.75,93.51,93.51,0,0,0,7.72,9.54q-.86.83-1.71,1.58a32.53,32.53,0,0,1-10.07,6.3Zm-13-24.5a32.53,32.53,0,0,1-10.49-5.57c-2.23-1.91-3.36-3.81-3.36-5.34,0-3.27,4.88-7.45,13-10.29,1-.34,2-.67,3.1-1a92.07,92.07,0,0,0,4.38,11.36,93.58,93.58,0,0,0-4.44,11.52q-1.15-.33-2.22-.69Zm4.35-29.59c-1.69-8.64-.57-15.15,2.26-16.79,3-1.74,9.66.74,16.67,7q.67.6,1.35,1.25a92,92,0,0,0-7.66,9.48,93.88,93.88,0,0,0-12,1.86q-.35-1.41-.62-2.77ZM169,101.21q-1.33-2.31-2.73-4.5c2.87.36,5.62.84,8.2,1.43a82,82,0,0,1-2.88,7.74q-1.22-2.32-2.59-4.68ZM153.18,85.8a82.11,82.11,0,0,1,5.29,6.39q-2.64-.12-5.33-.13t-5.29.12c1.75-2.3,3.54-4.44,5.34-6.39Zm-15.92,15.43q-1.33,2.31-2.54,4.65c-1.12-2.65-2.08-5.26-2.86-7.78,2.57-.57,5.3-1,8.15-1.4q-1.42,2.21-2.76,4.53Zm2.84,23a81.76,81.76,0,0,1-8.29-1.33c.79-2.56,1.77-5.23,2.91-7.94q1.21,2.33,2.55,4.65h0q1.37,2.36,2.82,4.62Zm13.19,10.9c-1.82-2-3.64-4.14-5.41-6.47q2.58.1,5.26.1t5.43-.12a81.71,81.71,0,0,1-5.28,6.49Zm18.33-20.31a81.49,81.49,0,0,1,3,7.91,81.61,81.61,0,0,1-8.39,1.43q1.4-2.22,2.76-4.58t2.61-4.76Zm-5.94,2.85c-1.41,2.44-2.85,4.76-4.31,7-2.67.19-5.42.29-8.23.29s-5.52-.09-8.14-.26c-1.52-2.22-3-4.56-4.39-7h0c-1.39-2.41-2.67-4.83-3.84-7.24,1.16-2.42,2.44-4.85,3.82-7.25h0c1.39-2.41,2.85-4.73,4.36-6.94,2.67-.2,5.42-.31,8.19-.31h0c2.78,0,5.53.11,8.2.31,1.49,2.19,2.94,4.51,4.33,6.92s2.71,4.85,3.88,7.21c-1.17,2.41-2.46,4.84-3.86,7.28Zm7.92-42.89c3,1.74,4.18,8.74,2.29,17.92q-.18.88-.4,1.79a92,92,0,0,0-12-1.9,90.23,90.23,0,0,0-7.6-9.49q1-1,2.07-1.9c6.64-5.78,12.84-8.06,15.67-6.43Zm-20.47,27.55a8,8,0,1,1-8,8,8,8,0,0,1,8-8Z"/></g></g></svg>